<mxfile host="app.diagrams.net" modified="2022-02-23T08:49:40.766Z" agent="5.0 (Windows NT 10.0; Win64; x64) AppleWebKit/537.36 (KHTML, like Gecko) Chrome/98.0.4758.102 Safari/537.36" etag="Q2oFvVmxtythH-TlfAsE" version="16.6.2" type="github">
  <diagram id="DpUXrAPcr8g7mLy-O5lq" name="Page-1">
    <mxGraphModel dx="4737" dy="4638" grid="1" gridSize="10" guides="1" tooltips="1" connect="1" arrows="1" fold="1" page="1" pageScale="1" pageWidth="827" pageHeight="1169" math="0" shadow="0">
      <root>
        <mxCell id="0" />
        <mxCell id="1" parent="0" />
        <mxCell id="XMWcY9tDgLBIwMx6nEMs-1" value="" style="rounded=1;whiteSpace=wrap;html=1;fontSize=100;strokeColor=#000000;strokeWidth=1;" vertex="1" parent="1">
          <mxGeometry x="-190" y="-1890" width="2880" height="2190" as="geometry" />
        </mxCell>
        <mxCell id="XMWcY9tDgLBIwMx6nEMs-3" value="" style="rounded=1;whiteSpace=wrap;html=1;fontSize=100;strokeColor=#000000;strokeWidth=1;" vertex="1" parent="1">
          <mxGeometry x="10" y="-1699" width="390" height="1270" as="geometry" />
        </mxCell>
        <mxCell id="XMWcY9tDgLBIwMx6nEMs-4" value="" style="shape=image;verticalLabelPosition=bottom;labelBackgroundColor=default;verticalAlign=top;aspect=fixed;imageAspect=0;image=data:image/png,iVBORw0KGgoAAAANSUhEUgAAAUoAAAF0CAYAAABFWXDYAAAgAElEQVR4nO3deXhld33n+ffZ7qJ7pSuptKtUVS6XbWxDwIQtCZsH2oSwmUAIwZ7udHroJEDT08mTJ3SH6UynZ5LOdJp+mhCGSZruNGFLJyQ4QLoDgZjNBgPGwXgp27WqtO+6+9l+88etkkuuko6kknSlq8/refxYuveco++Vy5/6bed3LGOMQURazr+5t/GPXDt3qyfG448Qnvwq8ej3oTyHqSxBtgOzOL6d9YkAYHUOQXUZq60AuUNYI7fh3fQK7KFbm12aHACbC8qgSvC1PyL4/mfBAvwqmPjp9+ul7a1O5KJLfwGbegkWxmDsEaIHP4MFOM97I6mX/yJ4meYWKS1rw0Hp3/thwm99ohGQUbiDJYlsgImgXsIA4Xf+O+F3/zvuS+4m9YpfbnZl0oISg9IsT1D71Hsxi5MQKyBlD7r45zL81ieJH7+X9Dt+H6u9r8lFtYZcBvJZ4OJMhjEX/6HxmjEQxVCsNf7dqtYNyuj0t6h/5n0QVHerHpGti3ziubNUP/JW0m/59zjHX9zsivYta+ksz78pzbHrB4ljiCKIY9b8ul4LOPnokyymj4KXa3b5285e641o4jH8z75fISn7T1AnuOc3iCYea3Yl+9Z1gy5Hjw8SRRCGjUC8/OswXP21ZXtcf9NNuGF55RrXd0MuBR1pONrZeO3ZG2jop114Tn/ycTf3Nq6/G64alPG57xJ88p9hasXdqUJkm8XVIvVPvpv4/IPNLmVfGhjoWAlBJ454Vecir+tZ4g39S7y6e4EbUksQxavC0hiHfPbp5HrLzfCGG+EXboP/8iZoT8PvvabxXt/FRmdvDnraGmEKjWNOdMOv/Njq43raGsemXRgpgG3Bu14It/ZC4eIcXj7VOM62oD/fON6x4VDbtf8+rCvWUQZVKv/h1RqPlNZgObT92t+Bm252JbvuWtZRvvREmUIhRxxDh6nx715mkfUa7apc2iaXdnh4rML7/85ivJpd6Yqfn1pigQIAzxuAf/qCp8PuM4/C0QK87CicX4LIgGNBm9doaf7S5+H37oALy+BHMFuBIIaM25hDvrkXvjPWCMGZciNcOzNwSy/c+Wn4rdsb13nnX8Ff3w3/7uvw6uthugyfehi+fHrrv8srWpS1T7xHISmtw0TUPv6eZlex71ze1Z4NMvzC36Z52+c93vpXHj/5pw7/6M8r5NMOv/sqsKNo5dj4smbX30/Bjw5C2YfPn4R/czvcfwE8B3758433AP7vr8EPpuAnTzQC7ffua7z+ymPg2U9f81/9LXzhCSikG61HgN/5Ojw4ATd0N67rR3CsE75+Du4bhf4cLNcbLc1rsSoow4c+i5k7c21XFNljzNwpwr//XLPL2FfieO2xySCExxbb+LUvGp41mOVFfcWV9y9fVm1MI8Q+/wR84UkIIvjaOfjeOHz25+CPH4KleiPclurwP56ENz4Lfv2lje8/+iAM5GGx2gi7cgCHO6AeQSVovHbp3PY0DOah6EMtbLQifzDVCOvrOuH0wrX9PlZ1vav/8dWYqsYlpfVY2Q6y/+JLzS5jV11L1/tHh8t0dOSIIkjHNd5+s03KdQCYWqrziUfbiGL4H3f5/MVDZT70YBdRBFOLSxTdwjZ+ir1hpUUZPXQPJoqaWYvIjonDkPChe5pdxr5xeYuyFqb4+qkq9z5Z4t4nStx/LiSMwESGzqzLfMWsHHt513sgD2+9pfHPTT1Pv/7aGzZex3AHvPRI4+s2D15/4/Z8vs1aCUr/gU+BX2lOFSI7zAoqBA98utll7BuXutxRBLXI5uGlAt+bLfCdmQInlzoIQ/jZm4pkUzbfvpC6bOb76Wu8YAje/pzGhEvaaYwrvnC4MaPdl4Nn9TTC9JZeON7VWEJUyDTGGC/9+47rG930lANvuQX+8I2Na9/c25gdH2qHI4XGzPb13Tv3+3ABTL0MCxd27qeI7AULoxi/gpXahvUiLe5SizKOAWN4fleJlG0wptGy+/GjFnc+t4MPf3WBR2a7VhaeP3MvshPd8Krj8MgM3PuP4c8eaQTkT90A7/xR+MD9jdnxt9zSmNTpz8E/uL4xQ/3jR+Cex+GJucbxP3UDPD7bOP+uH4E3Pwte/0n4+E83xit/9W927vfhAsSn7sM4HkTBzv0kkSYzTor41H04N7+62aXseZdak3EMQ5kaH3lLO5b19PtPTdf4lc/M85cnuwmj1XfpXO4vH4P/9K3GEp/5Kvw/34R3PKfx3h9+D0p+o+XoR3D/KHz0TXBqAV5zAsaKjRnzP3sE3v0iODnXaJ0e7WxM0PhRY4LoB1Pw3IHG+zvFBYjOP6Rut7Q+v0x0/qEDE5SXB9tmVat1UqnGOsqzy1le9OEQD0McQ6kO5SBDFGWuuJUxip+e51iswe3XwUsOw18/2QjCP3sbPDrTWCMZGaiHjS75qflGaH5ztNGafMUx+Ob5xv3jtRB+WGgsHbrrRxrft3mNQL2pp3HeRx+Et93aOGYnWMYYU/uvP0+s273kAHCGnk365z/a7DJ2xe98HX7jy1s7N7P4ONcfvxGD/XQIJt3vXV2k7NQgP7C9H2QPaIxRVq5xkZHIPmEq880uYdd4ztbPrUUWp04+RHfvUbxUYymQuSwYjbk8JGP86jz1yjnof872fYA9pBGU1eVm1yGyK0xlqdkl7JrDHddw8qGbqAUVxgMgWONpMRYXE8SC1CHo6gdnl3ap2GUugN3WRawxSjkI2lpvMfRaXn70Gi/gaXXAJTZAvDjW7DpEdsVBeqbTUDv8w+c2u4rWsOZ+lCKy//3B6+DnWnPYcFdt+SmMIrL35VKNBdn/xysaO+qMLjU2lfAjCFv40Q3bTUEp0uIsq3E3y7N6ko+Vq1PXW0QkgYJSRCSBglJEJIGCUkQkgYJSRCSBglJEJIGCUkQkgYJSRCSBglJEJIGCUkQkgYJSRCSBglJEJIGCUkQkgYJSRCSBglJEJIGCUkQkgYJSRCSBglJEJIGCUkQkgYJSRCSBglJEJIGCUkQkgYJSRCSBglJEJIGCUkQkgYJSRCSBglJEJIGCUkQkgYJSRCSBglJEJIGCUkQkgYJSRCSBglJEJIGC8hliY/AjQxAZ4thQ8eNmlyTbaLEaNrsE2YfcZhewF4SRoRbGVIKYyaUac5WAMDLUI4MfKihbzd3NLkD2nQMdlEFkCOOYRybLnJ+vNbscEdmjDmxQRrHh4fESZ+erzS5FRPa4AxmUYRTzpZMLVIOo2aWIyD5w4ILSj2LufVIhKSIbd6CCshrE/GC8SKmukBSRjTswy4PCGJ6aqTC2WG92KSKyzxyYoLQwPDlTaXYZIrIPHYiutx8ZTs2Um12GiOxTByIoXdviyZmNLQNyUxm8XAGICf0a6VyB0vSFnS1Qdk3XsVuaXYLsQy0flMbAhcUaYWzWPCaV7ySslhl50WvI9Q7R3n+UfN8R2vuPkO8/sovVishe1PJBGcYxZ9e468bN5olqFW66426e/eZ346Qyu1ydiOwHLR+Urm0zVw6ueD2d6+TZP/0ubn79O5tQlYjsJy0flEU/wpjV3W43k+NV//rjdB+7tUlVich+0tJBaYDp5dXrJt10hjs/eC+ZQk9zihKRfael11GGUcx06elut5fJ89rf+ZxCUkQ2paWDEssiuLifpJvKcMMdd1EYPtHkokRkv2npoLQM1C4GZaq9i+ff9b4mVyQi+1FLB6UBqkFEKtfBS/7p7zS7HBHZp1o6KF0bYgO2l2boea9odjkisk+1dFBaloWbzvLsO9/V7FJEZB9r6aDEgOW4nPhffrbZlYjIPtbSQVkOYtq6+nHT2WaXIiL7WEsHZS5lc/xlb252GSKyz7X0nTkAhZEbd/1nxqMPET35TaLR70N5nriyiNVWwCyO73ot0vqsziGoLmO1FSB3CGvkNrybXoE9pFt0t0vLB2XH0PFd+Tlm/jzB/X9C+MP/CW4K/HJjj7dL7/vaOFh2xqW/gE29BAtjMPYI0YOfwQKc572R1Mt/ETztjHUtLGOMqfz2i5tdx45p+1ff3tHrm+I0wd/8B8KzD4CvR03IHmO7YIH7krtJveKXm13NvtXyLcqdFHzr44T3fwxTW17VehTZM+IQgPBbnyR+/F7S7/h9rPa+Jhe1/7T0ZM5Oqv/5rxHe98eY6pJCUva+yCeeO0v1I28lOr2zvaxWpKDcgtrH/jei09/C1IrNLkVkc4I6wT2/QTTxWLMr2VcUlJtU+8jPEF/4IYR+s0tpKaHlMu31M+ENUbbzzS6npcXVIvVPvpv4/IPNLmXfUFBugv+n/4JoaZLGdhuyXQwWF7wRfFJYwHhqmJKda3ZZra1epvaJ90BYTz5WFJQbFXzjj4jGHsaK1JLcblU7S2S5DAbjhDh0RMvElodvp5tdWmszEbWPv6fZVewLCsoNMKVZgvv+RGOS2yzGYtIbwgJiy2Y8NYxHSH8wybzbTWB5zS6x5Zm5U4R//7lml7HnKSg3wP/8v9WY5DaLLIc5t5eynSNl6uSjEnU7S8bUmPIGAGiLtEh/p5l6meArH2x2GXuegjJBPP4I8cRjaFxyey3ZnSy6XaRMHcdEDATjFMJ55u1OQhyG/AtY+p3vijgMCR+6p9ll7GkKygTh/R9rrJWUbRPi0B3N0REtUbOzlJwOLAy94QzX+WcYDi6QMmrB7xYrqBA88Olml7Gn6c6cBOGpbza7hJYRWC5T7iBVp41CtEhfMAXApDfIgInJx6UmV3iALYxi/ApWqq3ZlexJalGuIzrzAJarmdftMukN4RHQE0yz5HQykxqgL5iiPVpizuvDYDW7xAPLOCniU/c1u4w9S0G5jvj0tzE1TShshwiHmp2lK5yn4uQpxMss2R0rYXnYP6cxyWbyy0TnH2p2FXuWgnId8dgP0CTOtTNYOER0h3PU7DZsE9PrT+KaiCppImwcEzW7zAPP6LbGNWmMch1xcabZJew7keVQtvN0REuElsuYd5jATnMonOVQOMtkapjYWMx5vaRNncH6KJZ63HuCqcw3u4Q9S0G5Ds12b17ZzjPlDRBbDnUrhW0iCtEic24vseXQFc4x7h0mMi4DwbhCcg8xFf15X4uCch1WthOjzXg3pSNaIrYcZtxebBMzEpwnFddJRVVmUkMYYzhWe0oBuRe1FZpdwZ6lMcp1mCU942YrOsN5esMZYstmye4AoBAv0+uPU7TzxJbT5ArlavRMp7WpRSnbJrRc5tweYhx6w2kAZtxePCI6w3kK8TIdflGz27LvKChlm1iMpUZIx3UypkZkOeSixgLyGbcXy0QUoiWFpOxLCkrZFkWnvdGSDKaY9XqZTR3FAkbqZ+kzEW3xxtaj+naaVKw9EmVv0RilXBODxYXUESwTE2FzJnOC0PI46p/FMz51O0shWsIzYeK1Fp0u5tzeXahaZHPUopQta2yV1kPNypAxNY76ZwlwMJbDkt1BjEMu3vgenrFlU0d7UMreo6CULatYbSw5nXhEOCbCIiSyM4ynhshEFQ775zd0x82S00mETYRDaKcILO9iC1TjmbI3KChlSwLLJR+X6A+mmPL6mXN76AlnyMQ1jtee2PB1anaGotNBYKUILy4bOps+jgW4sc9QOK4xS2k6BaVsSmC5jHuH8e00jonoDyZWwtLCcCic3cS1Ujgm4rB/HoDQ8jiTPk5fOINlYmwTKiRlT9Bkjqwrwlm1/dms249nQo7WzwBQsvPkoiL9wRRFp2PDi8ln3V7Opa/jXOo6ik5jUbprgsZPMzEd0aL2p5Q9Q0Ep6xpPDTPpDa2EZc1Ok4tLTLv95OIS+bjElDdIR7TIkfoZ7DXGJC8P25KdZ9kpcLR2ihQ+k+7gSlh6xscheYZcZDcpKGVdPeEsZbttJSyzcZUZrx+PgD5/krLbgWMCAOw1Jl+KTgdn09etPFWxZmfJxhXqThbLxORNeSUsB4KJlYXqInuFglLWlY6rdEaLlJw8k94QPeEMnvEpOx2cS19HycpxKJpb9xrLdgeh5TGWOkJgeXTEy3RH88x6/fQHk6SjKhlTw2DhaUxS9iBN5siaIsvhvHcEG0MhWmTZLoDbz+H6OcpOOzE2+biIm7CYvDuap+LkABhLHWHYP4+NITAOi24XJSvPcDhOOq7uxscS2TQFpaxp2ekktlyO+aewTEzOLjOeGgYGG3tJbnCdYzaukI5rpOMavp1ZCcu+cIolt5OecE4hKXuaut6yLguDuZiHGVPDMRGB7RGtM7u9bLdzIXWEspNfea07mqfsFhgIxnBMyFjqCG1xmSP1s3REizv9MUSuiVqUskpkuSw4XaTiGu3REgtOF2PeMJ3RIstOgbSpM+yPrnm+wWLe7SGwU1TtYVKuT2cwR0dUxHFDinYHw8EFxrxhanYWLwp28dOJbI2CUlY0NrgYIcDDuBaFaJHh4AKT3iCTzhCeCRgKxta9hoXhcDDKhdQRwCIbV5j1+lmgFyf2WXK76aovMOKPolsUZb9QUArQmLiZdw4BcLz+JGWnnSlvEICj9TNElrPhJyVW7DyH/VEupEao21mO+GcoOx0sut1EuPh2RmOSsq9ojFKAxgYXi24XtomxMbRHywwEEyw7ncy7hzYckpHlMu31U7UyHPbPE2EzmTpMR7TE0dopRvyzCknZdxSUgsGiPW7chlizM8y7jZZlPlpmwB+jPdrY0/mMAceEdESLLHiHcE24EpZj3mEsIB3XdvCTiOwMdb0PsMBymfaGqNhZ3NinP5hc2eACoDuc2/D91vPOIYpuga5ghq5gjvOZ45TtPLm4xGH/PDU7i8YkZb9Si/IAMViU7aeX7Ex4h4mBPn8Cj4iJ9AhZU6U/mGLZKRBt4o+HsSx8y2MmNch46jBe7K+0TF0Tko82voGvyF6joDxAim6BydQQoeURWC51O01fOE0hXmbIH8U2MUt2x8oGFw5x4jXLdh5j2XSG8zgm4lAwQy4u41sedTu7cn+3yH6mrvcBkg+XmHO6mXV76A8msTEsOQX64ho2BseEK3v8rLXBxeXqdpYJbxDbxByKF+iMFlhyOzlSO0NXNE/dSuMZrZOU/U9B2eIMFiWnnXxUxMbQF04z7g3TGS3QE0wz7fVTs7LEWMSWS0e4sKHr1u0sIQ7X+adZdLqZc3vAxESWQ8ntoD1aps1UdvjTiewOBWWLW3AbIea6PRwKZ2kPl8nZZWbcfkb8c7gmpOgWsE1EdzCHu4G9IGe9PpbsAsay6YgW6Qum6IrmWXQ6WXS6duFTiewuBWWLa4+WmXd7cEzMtDvAottNIVxk1uuj6DRafjl/4/s/Vu02luwCR+pnmPH6WXI6AegLpugO5+gK5ze8WYbIfqHJnBZksKjabQB4JqAjXMQAx/wzpOMaM94AsbGYdXuJL9t5PEnNbiOwUqSMj2+nCS2P7nCOJaeTabexpEghKa1IQdmCFtxuLqRGGPeGCS2PQ9EsoeVRtrL0B5McqZ8mH5ewMBt+xk3FznEhdYSMqdIfTDDr9dMbTOGZgLaoTMZoIbm0LnW9W1B3OIdnAuYuPsCrK5ijEC2y4PXSUS+SMj6DwRgGa80W4LzTTc409pFcdLuYc3rIxmVScR1jIMZmzu3Bt1IMhJO0xeVd/pQiu0ctyhbVHi1ztH6arnCOebebolMgsFwWL44pwtrd5Etd9zFvhLqdIR+XsYmpWRkiy8GyYMAfw7EMvdGMQlJanoJyH4ixqdnZVU8y3AgLQ3c4xzH/DDnTCLNLTztMOm8oGCMdVxnzRoiwGQlGsYkZT40QWw5ZU2XQv0B7tLylzySyn6jrvUdFOMx4fdTsLBEOWVOjYmVxTXDxNsPJDV/LNSF9/gQd1sKGHwW74HYT2Ckiy2bMG2E4GGUkGGXUG2HMO8yIfx7duy0HhYJyD1pyCsy5ffQFExwKZ1fd3RLYaepWiiczNzHgj9Meb/we6vUmXCIcHBpbqS07BebdHob8UdKmzqQ3tCosK6RRSMpBoq73HjPpDVK3sxyvP0k+Ll1xC6AX18lHRW6onaTsdjB7caefa9F47vZxwov3ZVftNtJxlba4gmMi+oKpiy3Lw9gmomMT4SzSChSUe8iEN0xHXKRvg93qAX+MVFxbWcO4FUWng0l3kEK0iHsxlLNxlbqdpWI3HjFbtnNk4yoDwQT2BjfwFWkl6nrvERPeMO3REm0b3P/xko5oCePaTLv99IVTmzr3Ukh2RfP0hDOElsec20NfOEU5yjGeGsE1PoHl0R9Mkg5KBACWwbEsaoGhLaW/a1vFYjWkrdlF7FEKyj3gUkhudJPcZyqECyy5XZsKS4PFnNuDYxkK0QKB5TKWGsEmJjYWg8EYxbiDkknTEZVZXprniaJPsRYSRIZ6aAii5G3YZH+5u9kF7FEKyiYb94bpuIaQvGQlLL1++oLksLQwFx8AdoQLqSNYgE3MsD+KQ8QE3RRLARdGT7JY3dhMuUirUr+pica9YQrxtYfkJYVwgXRcZ3qDEzyuCTjsn8fCWulex2HI2bCT++az/GB0XiEpgoKyaS6FZC7anpC8pBAtbiksPRNyzhrkh7VOHlhsg7lz2NWN7U0p0uoUlE0wkTq8IyF5yVbCsrt8hrlKwJPVHM7CeazK/I7UJrIfKSh32UTqMO3hwo6F5CWbCUs/ilkuVZh46oc48+cUkiLPoMmcXXQpJPMb3ESibmeoWG2EtkeMjW0iPALa4gqpuJ54fiFaZInOxAmexUrIA+ca92xbob+xDyNygCgod8lGQ9JgsewUWHAPEVhr/+fxTEB3OEtHVGS92wmTwjKIDH8/vrOtW5H9Tl3vXTDubSwkfSvFudQxpr3+dUMSILA8prxBzqeOJB67Vjc8NjBfDSjWNLMtsh4F5Q4b9w5TiBYTQ7Jit3EhfYzATm3q+nU7w4XUMep2Zt3jrhaWQWR4dGLjrUknlSF3aIBsZy9erp183+FN1Sp7W9exW5pdwp6lrvcOuhSSuYR1khU7x7g3fMV+k+1xiXy4RMbUcExEZLlUrQxFt5Oy/fTNZqHlMJE6zOH6WVyzduvwmd3wih+yUFm/NZlq7yIoLnLkxa8lP3CEfN8R8v1HaO8bId9/ZAO/BZH9T0G5Q+bdbnJxeeMhaT0dkq4JGQzGyMSrt0VzTUC7CWj3i1TsHJPeEJHV6BQEOEx5gwz7o+v+vEK0yIzVzwLtnJobW/M4L9eBiSJuff07ueVNv4hlqfMhB5eCcgcsOx34dpYBf+0ggquHpBf7HA5G120ZArTFZUaC84ymjhJdbIlW7DYqdhttcWXdc3vDKc66I0z5s8DqMLZsB9tL8/x3/Do3vPod615H5KBQUG4zg8W0N8iJ2sl1j7uWkHz6+Dq9wSST3uDKa4vuIdr89YMSoLd2gXL7EdzSwyuvuakMbqaNN3/4fhxvc2OlIq1M/altNuf20puwKUXFbrvmkLwkHy6vWlNZsbKYDXST50s17NIMpr0xueNl22gfOs5b/+h7CkmRZ1BQbrOanSFl1l+0PekObiokw1Secm6IyLtyt0DLYtXjIIxlUbPWnwGPYsPkch3CGsbLNmrIdPC63/3CuueJHFQKym1Wt9Kk47WfTQM00u0iL/YZWSck65lDLHTdSqV9hIXuW4mdK1t7z7xLJ0xYVxnHhnoYYwVVjJfFSWX4qd/9/Po1ixxgCsptFFkurgmxWX9D2/5ggnRcJx+XGQlGcdYJyeXCCS6tGjKWTeRc2Vp85s8zCf9ZLdui6sdYoY+dyvLCX/gtMoVD654jcpBpMmcbOSbEWDaB5eKtM9aYi8vk/PUXoNfS3RQvC0kANyjj+lc+2Ct6RgvSThjnNAYqQYRJtZHNFzhx+8+se7zIQacW5TZLX3ww17WoZ7opdt7wjJCsUJh/HOsq93VX7dVjlymCK465nOdYRLHBae/h5jt+7ppqFTkIFJTbLBtXqVvpLZ+/dkg+dtWWYmw5lOz2p4810YZ2FgJIdw9x+NYXbblWkYNCQbnNOqMFKnYbtS20KgOvnWLnDavajOuFJMCs27Nydw5ALtrYM7fdrmGO3/6zFAqFTdcpctAoKHfAQDDOBW9k0+fV052bCsklp5Mlp3Ple8sYuqPkTXfLfkw9N8Bzb3/9pmsUOYg0mbMDPBNypH6aMW+E4WD9e68vl64vUM0NgmXhBmUK84+vE5KFK7ZN647mcM3645MAs+3Xc6yjG9t2NlzbtTKLY4SPfJl49HvESxNQnodMO2ZxfNdqkIPD6hyCWhFy3diFAewjz8e56ZXYh45t6XoKyh2SIqQQLzLhDTEYbCwMvKDEobkfEDoZvPrSVSdu4FJIDqx6LR+V6ArmeMYGRFcYTR2lP5jAft5PbaimaxV97zP4D3wKU5rDikNMdNli/NrGhglENmvlL+BakWjuHNHZ7xHe9zGsTB73+T+N++M/v6nrKSh3UP7ieOFmwtIOa6TCtResXy0ks3GV/mDi8nXsVzWaOkpvOEUmrtFz4rkbqmerojPfpn7Pb0Low8WlUGvvwy6yw+IQ44cYv0zwjY/if/UPSb36vbgvfPuGTtcY5Q7LR0Xa4yIT3tA1X2utkBzyLyQucr88JAEO7WBQ+ve8n/pf/EuoLKyEpMheYUIfTIT/1f+P6v/705jF9Xf5AgXlrtiOsFx2OrctJHdS7Q/uJHzsK1BXQMoe51cwC2NU//NdRE98dd1DFZS75FrCMsZi2u1b9dreC0lD5d+/knh5EuJoh3+WyDbyq9Q//2+Jvv/ZNQ9RUO6irYalBasmdvZeSEL1D94MQbVxf6TIflMrUv/yf1ozLBWUu+zpsBze8DkWhoFgnLa4SiFa3FBInt/N7vYf/xPM8uSO/xyRHeVX8P/uQ1fthisomyAfFWmPljYVlrm4zLB/nr5gakMh2R9O70pI+l/5EPHMKbUkpSWYWpH6X/3mFRM8CsomycelTYflRlwKyXRc3dbrXo2ZPUP08BcaXW6RVuFXqX3qn616SUHZRKcBT7EAAA2hSURBVNsdlqPpY7sWkgD1L32gsQRIpMWY8gLhdz698r2Cssm2KyxH08fo9Sd3LSTj6VPE449g1OWWVuRX8P/2gyvfKij3gGsNy0shmTE7PyZ5SfTAJ7RWUlqa5TiE9/0xoKDcMy6F5dRlj55NYiybC97IrockQPjIF3f154nsNhP6hA/+BXAxKMv++rOosjvycYl8VOSpzE2Unfy6xy47BU6lrudQOLPrIRmffxDjrf+kR5FWYOol4tmzjU0x0k7Cbgqya3JxietrTzDhDVFyOnBjn7Spk4pr1O0sdStNgIdtGU7Un2xKjdFT96nbLQeCCX3iJ7/aCEo/inGd3dubUNZnYRgKxijbeep2mqLdTuh045mAdFwjR4Vs2LygikYfAqNeiBwAUUB09nuNoKyHMW0pBeVek4tL5OJSs8u4Ujl5F3WRVhEvTzbGKBeq6z/eVORycWWx2SWI7BpTnm8E5VwpIIi0Hk42xmrTA8nk4LAy7Y2gnFiu42ihkGyQnnMjB4lZHG8EZRgbSnUNzouIXM1KO/Kp2Qqhut8iIldYCcqzc9WEzbtERA6mVSOTP5woEUaKSxGRy9kA+b4RoNGqXK7reSciIpezAerFp/cU/PqpRWINVYqIrLABMu3dKy9EseGbpxcIlJYiIsCloOzsXfXiTCng66eWFJYiIlwMyr5nvQDLWr3ifLHi8+0zS0QKSxE54GyAodtux2u7cv/D6ZLPF0/OU6xHxNryX0QOKBug/5YXE/lX3/y16kd86fE5npiuEhtQXIrIQbPS3z72Y29Y98BHJ0t8/oczPDVTIYhigsgoNEXkQFgJypvf8E687PqPHwhjw8PjJT73w1m+cXqBk1MVZks+pXpEEMWU/b21BrMUuc0uQURawEqSdB65iZ4bnsfkw9/c0CNIFyohC5U9uKnsM9zd7AJEZN9bNdX9gn/0m6Tync2qRURkT1oVlIXDJzjxyrfhZtuaVY+IyJ5zxXa9t939PjoP33jFukoRkYPqqmn4k//XX5LrGd7tWkRE9qQ1m413/v5XcTNtYOmZ3yJysK3dv7Ys3v7fHiHfM4ztaJmNiBxciQORd37o6xx5yWtJ5Tp2ox4RkT1nQzM2L33vB3nZP/8QmUIPXja30zWJiOwpG57aHnzuy3jrH36H297xL+kYvA4vm8fxUjtZm4jInrDpwccb77iLG++4i9LUec7d/9dMPXo/pZkxasszpNoKlKZHd6LOLek6dkuzSxCRFrDlWZp8/xFuvfOXuPXOX9rOekRE9hytKhcRSaCgFBFJoKAUEUmgoBQRSaCgFBFJoKAUEUmgoBQRSaCgFBFJoKAUEUmgoBQRSaCgFBFJoKAUEUmgoBQRSaCgFBFJoKAUEUmgoBQRSaCgFBFJoKAUEUmgoBQRSaCgFBFJoKAUEUmgoBQRSaCgFBFJoKAUEUmgoBQRSaCgFBFJoKAUEUmgoBQRSaCgFBFJoKAUEUmgoBQRSaCgFBFJoKAUEUmgoBQRSaCgFBFJoKAUEUmgoBQRSaCgFBFJoKAUEUmgoBQRSaCgFBFJoKAUEUmgoBQRSaCgFBFJoKAUEUmgoBQRSaCgFBFJoKAUEUmgoBQRSaCgFBFJoKBcR9mPml2CiOwBCsp1eLbV7BJEZA9QUK6jHsXNLkFE9gAF5ToqvoJSRBSU65otB8TGNLsMEWkyBeU6xpZqxMpJkQNPQbmOUi0iiJSUIgedgjLBmdmKWpUiB5yCMsHj0xW0SEjkYFNQbsDD40VCTYCLHFgKynXk+g4D8NRslXqou3REDioF5Tr84uLK1984vUiowUqRA0lBuY50vrDydbke8d3zy/i6W0fkwFFQriPbPbDq+/GlOo+Ml9SyFDlgFJTr6HvWC7Gs1XPeZ+ZrPDxWVMtS5ABRUK5j4Dkvxcvmr3j9zHyNB0eLalmKHBAKynUMPucniIL6Vd8bX6rz5SfmKfmRlg6JtDgFZYKh571yzffK9YgvPjbHYxNFjAHtnyHSmhSUCZ5957tI5zvXPebJ2Sp/+YNpHp0sUQ1iwtho1yGRFuI2u4C97tCJ53LoxHOZeOhrGNYPv5PTFU5OV2hPuwx1punJebSlbNKuQxDF5FLOLlW9vlLk0tbsIkT2EcsYNX2SVBemueefv5KwXm12Kdvm7j89s+VzK7/94m2sRGTvU9d7A7Jdfdzypl/Cy7Y3uxQRaQIF5Qb9yFveS9/NL8Bx080uRUR2mYJyE27/9f9Cvm8Yy9avTeQg0f/xm/SG//hlem64DcdNNbsUEdklCsoteM1v/TlDz7/9qnftiEjrUVBu0St+9SP8yM/876RyHeqKi7Q4/R9+DW5+3T/hjR/4MiMvfA1eNtfsckRkh2jB+TXKdPbw8l/5MMWJszxyz0c4e99fYTkeQbUERjeBi7QCLTjfATMnv8uF7/0dM09+l+rcFLXiPOl8J6Xp0WaXBkDXsVt43e9+Ycvna8G5HDQKStk0BaUcNBqjFBFJoKAUEUmgoBQRSaCgFBFJoKAUEUmgoBQRSaCgFBFJoKAUEUmgoBQRSaCgFBFJoKAUEUmgoBQRSaCgFBFJoKAUEUmgoBQRSaCgFBFJoKAUEUmgoBQRSaCgFBFJoKAUEUmgoBQRSaCgFBFJoKAUEUmgoBQRSaCgFBFJoKAUEUmgoBQRSaCgFBFJoKAUEUmgoBQRSaCgFBFJoKAUEUmgoBQRSaCgFBFJoKAUEUmgoBQRSaCgFBFJoKAUEUmgoBQRSaCgFBFJoKAUEUmgoBQRSaCgFBFJoKAUEUmgoBQRSaCgFBFJoKAUEUmgoBQRSaCgFBFJoKAUEUmgoJRNK/txs0sQ2TVlP1JQyualXavZJYjsmpRjKyhl84JILUo5OOphrKCUzauHptkliOyamoJStmKhEjS7BJFdM18JFJSyeXOVgDBSq1JaXxAZZksKStmCqWUfS39y5ABwHYvJ5bqCUjavHsbUtERIDoCZUh3QOkrZorNzVWL1vqWF1cOYU7NVQEEpW3RypoKt5ZTSwvwoZmLJBxSUcg2enK4SGzUrpfUEkeH7F4or3ysoZdPyfSMAPDpVpK6xSmkxBpgp+cyWGsvg8n0jCkrZvHpxAYAohh9OlnWnjrSU2Bi+dXZp5Xu/sqSglM3LtHevfD26WGNyOSC+xpmd0HKZ9vqZ8IYo2/lrLVFkS4LI8JUn5le9lunoVVDK5mU6e1d9/53zS8xfw906BosL3gg+KSxgPDVMyc5dY5UimxNEjZZksRatej3XO6SglM3re9YLsJ6x4vxrpxap+NGWlgxV7SyR5TIYjBPi0BEtE1sevp3epopF1hdEMQ+cW2am5K963XJc+m9+sYJSNm/ottvx2q7sHv/Px+ZYroUbDssYi0lvCAuILZvx1DAeIf3BJPNuN4HlbW/hIldhjOEbp5eZKtaveM9NZRh50WsUlLJ5/be8mMivXfW9rzwxz9mFKkFCWkaWw5zbS9nOkTJ18lGJup0lY2pMeQMAtEXlba9d5JIwMizXQj73yCwLFf+qx6TaOigMn1BQytYc+7E3rPneQ6NF7ju9SDWI1pwRX7I7WXS7SJk6jokYCMYphPPM252EOAz5F7DQGk3ZfrExRMbwg4kif3tyfs0NXhwvzY2vuQsAyxitGJbNWzx/kr/5128lqJbWPe667gwnetvIphwsy8KxIMTBJWLKG2DZKTAYTJCPlnepcjmIYgORMQRhzOm5Gk9MJ/dWbNvmHZ86BYC70wVKa+o8chM9NzyPyYe/yXp/156Zr3FmvkZbymawO4996BikOzhklugoj0MOJr1BBkxMPl4/dEU2quxHeI5NLYyp+BGzJZ/xpTqlepR8MuBmctz29l9d+V4tStmypQtP8cX/820rC9CTRD03QFjDCmrEncPYlQXshfNEnYchnceZehzU3ZY9oL3/KG/64L0r32uMUrascPgEJ175NtxsW/LBtoNJ57BL05hsAbuyQNzWRdx1BGfxAs7MkygkZS9wMzle9RsfW/WaglKuyW13v4/Owzdesa5yFcuGOMJensSk842vF0chCoi9DMZ2IA53r2iRNaRyBX7i3R8g339k1evqesu2+Ox7Xk5pZhRsF5PpwKrMg+MRHjoObga7OIldnCLuPoaxHKywhnEz2HOn0G5tshe42Rwv+F/fz4lXvf2K9xSUsj2M4dM//2wCJ0vUOYKzNE7spjFuGjuoEed7sEvTWJUFokPHsaIQe+EcVnj19ZgiuymVK/D8u9531ZAEBaVss8++52WU/Igw3w9xhDP7FFZQJc52EXcfxS5OYy2PqxUpe4abyfET7/4AIy+6Y81jFJSy7b7xwfcy+sQj1FMdWMVpnOVxgEZYtg/gzj4B8caWaYjsFDeTI9NxiFe//0+uGJN8JgWlbJswDJmZmSGKIpg5zTf/22/jpzth9gxWabpxkGWD0f6V0jy2l4Io5Ef/4fu56bX/eEPnKChl25w+fZp0Ok0mkyGXy2HbNo986U85+d2vEU+exCpOEQVXv6dWZCfZrofjpUm1dXDjHXdx653v2tT5CkrZFsvLy0xNTXH8+HGmp6dZXFzEsiyOHTtGtVrFqiwy9p2/YerR+ynNjFFbniHVVqA0PbrqOsbLYgXVJn0KaRX5vhH8yhKZjl5yvUMM3vJjDL/wH1AYPrGl6/3/MVNeQL2w/mUAAAAASUVORK5CYII=;" vertex="1" parent="1">
          <mxGeometry x="148.3" y="-1160" width="115.32" height="130" as="geometry" />
        </mxCell>
        <mxCell id="XMWcY9tDgLBIwMx6nEMs-5" value="" style="verticalLabelPosition=bottom;verticalAlign=top;html=1;shadow=0;dashed=0;strokeWidth=1;shape=mxgraph.android.contact_badge_normal;sketch=0;fontSize=28;" vertex="1" parent="1">
          <mxGeometry x="-650" y="-2161" width="250" height="280" as="geometry" />
        </mxCell>
        <mxCell id="XMWcY9tDgLBIwMx6nEMs-6" value="Users" style="text;html=1;strokeColor=none;fillColor=none;align=center;verticalAlign=middle;whiteSpace=wrap;rounded=0;fontSize=28;" vertex="1" parent="1">
          <mxGeometry x="-647.9999999999999" y="-1871" width="270" height="30" as="geometry" />
        </mxCell>
        <mxCell id="XMWcY9tDgLBIwMx6nEMs-77" value="" style="rounded=1;whiteSpace=wrap;html=1;" vertex="1" parent="1">
          <mxGeometry x="823.5" y="-1723.5" width="1513" height="1473" as="geometry" />
        </mxCell>
        <mxCell id="XMWcY9tDgLBIwMx6nEMs-8" value="Elastic Load Balancer" style="text;html=1;strokeColor=none;fillColor=none;align=center;verticalAlign=middle;whiteSpace=wrap;rounded=0;fontSize=28;" vertex="1" parent="1">
          <mxGeometry x="44.530000000000065" y="-1310" width="328" height="30" as="geometry" />
        </mxCell>
        <mxCell id="XMWcY9tDgLBIwMx6nEMs-9" value="" style="endArrow=classic;html=1;rounded=0;fontSize=100;" edge="1" parent="1">
          <mxGeometry width="50" height="50" relative="1" as="geometry">
            <mxPoint x="-383" y="-2047" as="sourcePoint" />
            <mxPoint x="13" y="-2047" as="targetPoint" />
          </mxGeometry>
        </mxCell>
        <mxCell id="XMWcY9tDgLBIwMx6nEMs-10" value="" style="endArrow=classic;html=1;rounded=0;fontSize=100;" edge="1" parent="1">
          <mxGeometry width="50" height="50" relative="1" as="geometry">
            <mxPoint x="12" y="-1981" as="sourcePoint" />
            <mxPoint x="-368" y="-1981" as="targetPoint" />
          </mxGeometry>
        </mxCell>
        <mxCell id="XMWcY9tDgLBIwMx6nEMs-11" value="" style="outlineConnect=0;dashed=0;verticalLabelPosition=bottom;verticalAlign=top;align=center;html=1;shape=mxgraph.aws3.classic_load_balancer;fillColor=#F58534;gradientColor=none;fontSize=100;strokeColor=#000000;strokeWidth=1;" vertex="1" parent="1">
          <mxGeometry x="148.3" y="-1470" width="124.47" height="145" as="geometry" />
        </mxCell>
        <mxCell id="XMWcY9tDgLBIwMx6nEMs-12" value="" style="endArrow=classic;html=1;rounded=0;fontSize=100;entryX=0.5;entryY=0;entryDx=0;entryDy=0;entryPerimeter=0;" edge="1" parent="1">
          <mxGeometry width="50" height="50" relative="1" as="geometry">
            <mxPoint x="176" y="-1850" as="sourcePoint" />
            <mxPoint x="176" y="-1675" as="targetPoint" />
          </mxGeometry>
        </mxCell>
        <mxCell id="XMWcY9tDgLBIwMx6nEMs-13" value="" style="endArrow=classic;html=1;rounded=0;fontSize=100;entryX=0.5;entryY=1;entryDx=0;entryDy=0;" edge="1" parent="1">
          <mxGeometry width="50" height="50" relative="1" as="geometry">
            <mxPoint x="216" y="-1675" as="sourcePoint" />
            <mxPoint x="216" y="-1850" as="targetPoint" />
          </mxGeometry>
        </mxCell>
        <mxCell id="XMWcY9tDgLBIwMx6nEMs-14" value="" style="endArrow=none;html=1;rounded=0;fontSize=100;" edge="1" parent="1">
          <mxGeometry width="50" height="50" relative="1" as="geometry">
            <mxPoint x="213.53" y="-1180" as="sourcePoint" />
            <mxPoint x="213.53" y="-1257" as="targetPoint" />
          </mxGeometry>
        </mxCell>
        <mxCell id="XMWcY9tDgLBIwMx6nEMs-15" value="Amazon EC2&lt;br&gt;Web Application" style="text;html=1;strokeColor=none;fillColor=none;align=center;verticalAlign=middle;whiteSpace=wrap;rounded=0;fontSize=28;" vertex="1" parent="1">
          <mxGeometry x="35.46000000000001" y="-985" width="328" height="25" as="geometry" />
        </mxCell>
        <mxCell id="XMWcY9tDgLBIwMx6nEMs-20" value="Amazon EC2&lt;br&gt;instance" style="text;html=1;strokeColor=none;fillColor=none;align=center;verticalAlign=middle;whiteSpace=wrap;rounded=0;fontSize=28;" vertex="1" parent="1">
          <mxGeometry x="46.53000000000006" y="-737" width="328" height="30" as="geometry" />
        </mxCell>
        <mxCell id="XMWcY9tDgLBIwMx6nEMs-96" style="edgeStyle=orthogonalEdgeStyle;rounded=0;orthogonalLoop=1;jettySize=auto;html=1;exitX=1;exitY=0.5;exitDx=0;exitDy=0;entryX=1;entryY=0.5;entryDx=0;entryDy=0;startArrow=classic;startFill=1;" edge="1" parent="1" source="XMWcY9tDgLBIwMx6nEMs-22" target="XMWcY9tDgLBIwMx6nEMs-77">
          <mxGeometry relative="1" as="geometry">
            <Array as="points">
              <mxPoint x="1719" />
              <mxPoint x="2480" />
              <mxPoint x="2480" y="-1041" />
            </Array>
          </mxGeometry>
        </mxCell>
        <mxCell id="XMWcY9tDgLBIwMx6nEMs-98" style="edgeStyle=orthogonalEdgeStyle;rounded=0;orthogonalLoop=1;jettySize=auto;html=1;exitX=0;exitY=0.5;exitDx=0;exitDy=0;startArrow=classic;startFill=1;endArrow=classic;endFill=1;" edge="1" parent="1" source="XMWcY9tDgLBIwMx6nEMs-22" target="XMWcY9tDgLBIwMx6nEMs-3">
          <mxGeometry relative="1" as="geometry" />
        </mxCell>
        <mxCell id="XMWcY9tDgLBIwMx6nEMs-22" value="" style="shape=image;verticalLabelPosition=bottom;labelBackgroundColor=default;verticalAlign=top;aspect=fixed;imageAspect=0;image=https://media.vlpt.us/images/kimsehwan96/post/8892b4ae-9e41-48f2-809c-a47e6f7614b8/Screenshot-2020-08-10-at-6.26.31-PM.png;" vertex="1" parent="1">
          <mxGeometry x="630.5" y="-200" width="1239" height="416.98" as="geometry" />
        </mxCell>
        <mxCell id="XMWcY9tDgLBIwMx6nEMs-23" value="" style="shape=image;verticalLabelPosition=bottom;labelBackgroundColor=default;verticalAlign=top;aspect=fixed;imageAspect=0;image=https://blog.gyunoh.com/content/images/2020/10/image.png;" vertex="1" parent="1">
          <mxGeometry x="1930" y="-1881" width="303.48" height="171" as="geometry" />
        </mxCell>
        <mxCell id="XMWcY9tDgLBIwMx6nEMs-34" value="" style="endArrow=classic;html=1;rounded=0;fontSize=50;" edge="1" parent="1">
          <mxGeometry width="50" height="50" relative="1" as="geometry">
            <mxPoint x="478" y="-1518" as="sourcePoint" />
            <mxPoint x="748" y="-1518" as="targetPoint" />
          </mxGeometry>
        </mxCell>
        <mxCell id="XMWcY9tDgLBIwMx6nEMs-35" value="REQ" style="text;html=1;strokeColor=none;fillColor=none;align=center;verticalAlign=middle;whiteSpace=wrap;rounded=0;fontSize=28;" vertex="1" parent="1">
          <mxGeometry x="440" y="-1568" width="360" height="30" as="geometry" />
        </mxCell>
        <mxCell id="XMWcY9tDgLBIwMx6nEMs-36" value="" style="endArrow=classic;html=1;rounded=0;fontSize=50;" edge="1" parent="1">
          <mxGeometry width="50" height="50" relative="1" as="geometry">
            <mxPoint x="718" y="-1456" as="sourcePoint" />
            <mxPoint x="498" y="-1456" as="targetPoint" />
          </mxGeometry>
        </mxCell>
        <mxCell id="XMWcY9tDgLBIwMx6nEMs-37" value="RES" style="text;html=1;strokeColor=none;fillColor=none;align=center;verticalAlign=middle;whiteSpace=wrap;rounded=0;fontSize=28;" vertex="1" parent="1">
          <mxGeometry x="440" y="-1436" width="360" height="30" as="geometry" />
        </mxCell>
        <mxCell id="XMWcY9tDgLBIwMx6nEMs-42" value="" style="dashed=0;outlineConnect=0;html=1;align=center;labelPosition=center;verticalLabelPosition=bottom;verticalAlign=top;shape=mxgraph.weblogos.chrome" vertex="1" parent="1">
          <mxGeometry x="70" y="-2120" width="220" height="221" as="geometry" />
        </mxCell>
        <mxCell id="XMWcY9tDgLBIwMx6nEMs-44" value="" style="shape=image;verticalLabelPosition=bottom;labelBackgroundColor=default;verticalAlign=top;aspect=fixed;imageAspect=0;image=data:image/png,iVBORw0KGgoAAAANSUhEUgAAAUoAAAF0CAYAAABFWXDYAAAgAElEQVR4nO3deXhld33n+ffZ7qJ7pSuptKtUVS6XbWxDwIQtCZsH2oSwmUAIwZ7udHroJEDT08mTJ3SH6UynZ5LOdJp+mhCGSZruNGFLJyQ4QLoDgZjNBgPGwXgp27WqtO+6+9l+88etkkuuko6kknSlq8/refxYuveco++Vy5/6bed3LGOMQURazr+5t/GPXDt3qyfG448Qnvwq8ej3oTyHqSxBtgOzOL6d9YkAYHUOQXUZq60AuUNYI7fh3fQK7KFbm12aHACbC8qgSvC1PyL4/mfBAvwqmPjp9+ul7a1O5KJLfwGbegkWxmDsEaIHP4MFOM97I6mX/yJ4meYWKS1rw0Hp3/thwm99ohGQUbiDJYlsgImgXsIA4Xf+O+F3/zvuS+4m9YpfbnZl0oISg9IsT1D71Hsxi5MQKyBlD7r45zL81ieJH7+X9Dt+H6u9r8lFtYZcBvJZ4OJMhjEX/6HxmjEQxVCsNf7dqtYNyuj0t6h/5n0QVHerHpGti3ziubNUP/JW0m/59zjHX9zsivYta+ksz78pzbHrB4ljiCKIY9b8ul4LOPnokyymj4KXa3b5285e641o4jH8z75fISn7T1AnuOc3iCYea3Yl+9Z1gy5Hjw8SRRCGjUC8/OswXP21ZXtcf9NNuGF55RrXd0MuBR1pONrZeO3ZG2jop114Tn/ycTf3Nq6/G64alPG57xJ88p9hasXdqUJkm8XVIvVPvpv4/IPNLmVfGhjoWAlBJ454Vecir+tZ4g39S7y6e4EbUksQxavC0hiHfPbp5HrLzfCGG+EXboP/8iZoT8PvvabxXt/FRmdvDnraGmEKjWNOdMOv/Njq43raGsemXRgpgG3Bu14It/ZC4eIcXj7VOM62oD/fON6x4VDbtf8+rCvWUQZVKv/h1RqPlNZgObT92t+Bm252JbvuWtZRvvREmUIhRxxDh6nx715mkfUa7apc2iaXdnh4rML7/85ivJpd6Yqfn1pigQIAzxuAf/qCp8PuM4/C0QK87CicX4LIgGNBm9doaf7S5+H37oALy+BHMFuBIIaM25hDvrkXvjPWCMGZciNcOzNwSy/c+Wn4rdsb13nnX8Ff3w3/7uvw6uthugyfehi+fHrrv8srWpS1T7xHISmtw0TUPv6eZlex71ze1Z4NMvzC36Z52+c93vpXHj/5pw7/6M8r5NMOv/sqsKNo5dj4smbX30/Bjw5C2YfPn4R/czvcfwE8B3758433AP7vr8EPpuAnTzQC7ffua7z+ymPg2U9f81/9LXzhCSikG61HgN/5Ojw4ATd0N67rR3CsE75+Du4bhf4cLNcbLc1rsSoow4c+i5k7c21XFNljzNwpwr//XLPL2FfieO2xySCExxbb+LUvGp41mOVFfcWV9y9fVm1MI8Q+/wR84UkIIvjaOfjeOHz25+CPH4KleiPclurwP56ENz4Lfv2lje8/+iAM5GGx2gi7cgCHO6AeQSVovHbp3PY0DOah6EMtbLQifzDVCOvrOuH0wrX9PlZ1vav/8dWYqsYlpfVY2Q6y/+JLzS5jV11L1/tHh8t0dOSIIkjHNd5+s03KdQCYWqrziUfbiGL4H3f5/MVDZT70YBdRBFOLSxTdwjZ+ir1hpUUZPXQPJoqaWYvIjonDkPChe5pdxr5xeYuyFqb4+qkq9z5Z4t4nStx/LiSMwESGzqzLfMWsHHt513sgD2+9pfHPTT1Pv/7aGzZex3AHvPRI4+s2D15/4/Z8vs1aCUr/gU+BX2lOFSI7zAoqBA98utll7BuXutxRBLXI5uGlAt+bLfCdmQInlzoIQ/jZm4pkUzbfvpC6bOb76Wu8YAje/pzGhEvaaYwrvnC4MaPdl4Nn9TTC9JZeON7VWEJUyDTGGC/9+47rG930lANvuQX+8I2Na9/c25gdH2qHI4XGzPb13Tv3+3ABTL0MCxd27qeI7AULoxi/gpXahvUiLe5SizKOAWN4fleJlG0wptGy+/GjFnc+t4MPf3WBR2a7VhaeP3MvshPd8Krj8MgM3PuP4c8eaQTkT90A7/xR+MD9jdnxt9zSmNTpz8E/uL4xQ/3jR+Cex+GJucbxP3UDPD7bOP+uH4E3Pwte/0n4+E83xit/9W927vfhAsSn7sM4HkTBzv0kkSYzTor41H04N7+62aXseZdak3EMQ5kaH3lLO5b19PtPTdf4lc/M85cnuwmj1XfpXO4vH4P/9K3GEp/5Kvw/34R3PKfx3h9+D0p+o+XoR3D/KHz0TXBqAV5zAsaKjRnzP3sE3v0iODnXaJ0e7WxM0PhRY4LoB1Pw3IHG+zvFBYjOP6Rut7Q+v0x0/qEDE5SXB9tmVat1UqnGOsqzy1le9OEQD0McQ6kO5SBDFGWuuJUxip+e51iswe3XwUsOw18/2QjCP3sbPDrTWCMZGaiHjS75qflGaH5ztNGafMUx+Ob5xv3jtRB+WGgsHbrrRxrft3mNQL2pp3HeRx+Et93aOGYnWMYYU/uvP0+s273kAHCGnk365z/a7DJ2xe98HX7jy1s7N7P4ONcfvxGD/XQIJt3vXV2k7NQgP7C9H2QPaIxRVq5xkZHIPmEq880uYdd4ztbPrUUWp04+RHfvUbxUYymQuSwYjbk8JGP86jz1yjnof872fYA9pBGU1eVm1yGyK0xlqdkl7JrDHddw8qGbqAUVxgMgWONpMRYXE8SC1CHo6gdnl3ap2GUugN3WRawxSjkI2lpvMfRaXn70Gi/gaXXAJTZAvDjW7DpEdsVBeqbTUDv8w+c2u4rWsOZ+lCKy//3B6+DnWnPYcFdt+SmMIrL35VKNBdn/xysaO+qMLjU2lfAjCFv40Q3bTUEp0uIsq3E3y7N6ko+Vq1PXW0QkgYJSRCSBglJEJIGCUkQkgYJSRCSBglJEJIGCUkQkgYJSRCSBglJEJIGCUkQkgYJSRCSBglJEJIGCUkQkgYJSRCSBglJEJIGCUkQkgYJSRCSBglJEJIGCUkQkgYJSRCSBglJEJIGCUkQkgYJSRCSBglJEJIGCUkQkgYJSRCSBglJEJIGCUkQkgYJSRCSBglJEJIGCUkQkgYJSRCSBglJEJIGC8hliY/AjQxAZ4thQ8eNmlyTbaLEaNrsE2YfcZhewF4SRoRbGVIKYyaUac5WAMDLUI4MfKihbzd3NLkD2nQMdlEFkCOOYRybLnJ+vNbscEdmjDmxQRrHh4fESZ+erzS5FRPa4AxmUYRTzpZMLVIOo2aWIyD5w4ILSj2LufVIhKSIbd6CCshrE/GC8SKmukBSRjTswy4PCGJ6aqTC2WG92KSKyzxyYoLQwPDlTaXYZIrIPHYiutx8ZTs2Um12GiOxTByIoXdviyZmNLQNyUxm8XAGICf0a6VyB0vSFnS1Qdk3XsVuaXYLsQy0flMbAhcUaYWzWPCaV7ySslhl50WvI9Q7R3n+UfN8R2vuPkO8/sovVishe1PJBGcYxZ9e468bN5olqFW66426e/eZ346Qyu1ydiOwHLR+Urm0zVw6ueD2d6+TZP/0ubn79O5tQlYjsJy0flEU/wpjV3W43k+NV//rjdB+7tUlVich+0tJBaYDp5dXrJt10hjs/eC+ZQk9zihKRfael11GGUcx06elut5fJ89rf+ZxCUkQ2paWDEssiuLifpJvKcMMdd1EYPtHkokRkv2npoLQM1C4GZaq9i+ff9b4mVyQi+1FLB6UBqkFEKtfBS/7p7zS7HBHZp1o6KF0bYgO2l2boea9odjkisk+1dFBaloWbzvLsO9/V7FJEZB9r6aDEgOW4nPhffrbZlYjIPtbSQVkOYtq6+nHT2WaXIiL7WEsHZS5lc/xlb252GSKyz7X0nTkAhZEbd/1nxqMPET35TaLR70N5nriyiNVWwCyO73ot0vqsziGoLmO1FSB3CGvkNrybXoE9pFt0t0vLB2XH0PFd+Tlm/jzB/X9C+MP/CW4K/HJjj7dL7/vaOFh2xqW/gE29BAtjMPYI0YOfwQKc572R1Mt/ETztjHUtLGOMqfz2i5tdx45p+1ff3tHrm+I0wd/8B8KzD4CvR03IHmO7YIH7krtJveKXm13NvtXyLcqdFHzr44T3fwxTW17VehTZM+IQgPBbnyR+/F7S7/h9rPa+Jhe1/7T0ZM5Oqv/5rxHe98eY6pJCUva+yCeeO0v1I28lOr2zvaxWpKDcgtrH/jei09/C1IrNLkVkc4I6wT2/QTTxWLMr2VcUlJtU+8jPEF/4IYR+s0tpKaHlMu31M+ENUbbzzS6npcXVIvVPvpv4/IPNLmXfUFBugv+n/4JoaZLGdhuyXQwWF7wRfFJYwHhqmJKda3ZZra1epvaJ90BYTz5WFJQbFXzjj4jGHsaK1JLcblU7S2S5DAbjhDh0RMvElodvp5tdWmszEbWPv6fZVewLCsoNMKVZgvv+RGOS2yzGYtIbwgJiy2Y8NYxHSH8wybzbTWB5zS6x5Zm5U4R//7lml7HnKSg3wP/8v9WY5DaLLIc5t5eynSNl6uSjEnU7S8bUmPIGAGiLtEh/p5l6meArH2x2GXuegjJBPP4I8cRjaFxyey3ZnSy6XaRMHcdEDATjFMJ55u1OQhyG/AtY+p3vijgMCR+6p9ll7GkKygTh/R9rrJWUbRPi0B3N0REtUbOzlJwOLAy94QzX+WcYDi6QMmrB7xYrqBA88Olml7Gn6c6cBOGpbza7hJYRWC5T7iBVp41CtEhfMAXApDfIgInJx6UmV3iALYxi/ApWqq3ZlexJalGuIzrzAJarmdftMukN4RHQE0yz5HQykxqgL5iiPVpizuvDYDW7xAPLOCniU/c1u4w9S0G5jvj0tzE1TShshwiHmp2lK5yn4uQpxMss2R0rYXnYP6cxyWbyy0TnH2p2FXuWgnId8dgP0CTOtTNYOER0h3PU7DZsE9PrT+KaiCppImwcEzW7zAPP6LbGNWmMch1xcabZJew7keVQtvN0REuElsuYd5jATnMonOVQOMtkapjYWMx5vaRNncH6KJZ63HuCqcw3u4Q9S0G5Ds12b17ZzjPlDRBbDnUrhW0iCtEic24vseXQFc4x7h0mMi4DwbhCcg8xFf15X4uCch1WthOjzXg3pSNaIrYcZtxebBMzEpwnFddJRVVmUkMYYzhWe0oBuRe1FZpdwZ6lMcp1mCU942YrOsN5esMZYstmye4AoBAv0+uPU7TzxJbT5ArlavRMp7WpRSnbJrRc5tweYhx6w2kAZtxePCI6w3kK8TIdflGz27LvKChlm1iMpUZIx3UypkZkOeSixgLyGbcXy0QUoiWFpOxLCkrZFkWnvdGSDKaY9XqZTR3FAkbqZ+kzEW3xxtaj+naaVKw9EmVv0RilXBODxYXUESwTE2FzJnOC0PI46p/FMz51O0shWsIzYeK1Fp0u5tzeXahaZHPUopQta2yV1kPNypAxNY76ZwlwMJbDkt1BjEMu3vgenrFlU0d7UMreo6CULatYbSw5nXhEOCbCIiSyM4ynhshEFQ775zd0x82S00mETYRDaKcILO9iC1TjmbI3KChlSwLLJR+X6A+mmPL6mXN76AlnyMQ1jtee2PB1anaGotNBYKUILy4bOps+jgW4sc9QOK4xS2k6BaVsSmC5jHuH8e00jonoDyZWwtLCcCic3cS1Ujgm4rB/HoDQ8jiTPk5fOINlYmwTKiRlT9Bkjqwrwlm1/dms249nQo7WzwBQsvPkoiL9wRRFp2PDi8ln3V7Opa/jXOo6ik5jUbprgsZPMzEd0aL2p5Q9Q0Ep6xpPDTPpDa2EZc1Ok4tLTLv95OIS+bjElDdIR7TIkfoZ7DXGJC8P25KdZ9kpcLR2ihQ+k+7gSlh6xscheYZcZDcpKGVdPeEsZbttJSyzcZUZrx+PgD5/krLbgWMCAOw1Jl+KTgdn09etPFWxZmfJxhXqThbLxORNeSUsB4KJlYXqInuFglLWlY6rdEaLlJw8k94QPeEMnvEpOx2cS19HycpxKJpb9xrLdgeh5TGWOkJgeXTEy3RH88x6/fQHk6SjKhlTw2DhaUxS9iBN5siaIsvhvHcEG0MhWmTZLoDbz+H6OcpOOzE2+biIm7CYvDuap+LkABhLHWHYP4+NITAOi24XJSvPcDhOOq7uxscS2TQFpaxp2ekktlyO+aewTEzOLjOeGgYGG3tJbnCdYzaukI5rpOMavp1ZCcu+cIolt5OecE4hKXuaut6yLguDuZiHGVPDMRGB7RGtM7u9bLdzIXWEspNfea07mqfsFhgIxnBMyFjqCG1xmSP1s3REizv9MUSuiVqUskpkuSw4XaTiGu3REgtOF2PeMJ3RIstOgbSpM+yPrnm+wWLe7SGwU1TtYVKuT2cwR0dUxHFDinYHw8EFxrxhanYWLwp28dOJbI2CUlY0NrgYIcDDuBaFaJHh4AKT3iCTzhCeCRgKxta9hoXhcDDKhdQRwCIbV5j1+lmgFyf2WXK76aovMOKPolsUZb9QUArQmLiZdw4BcLz+JGWnnSlvEICj9TNElrPhJyVW7DyH/VEupEao21mO+GcoOx0sut1EuPh2RmOSsq9ojFKAxgYXi24XtomxMbRHywwEEyw7ncy7hzYckpHlMu31U7UyHPbPE2EzmTpMR7TE0dopRvyzCknZdxSUgsGiPW7chlizM8y7jZZlPlpmwB+jPdrY0/mMAceEdESLLHiHcE24EpZj3mEsIB3XdvCTiOwMdb0PsMBymfaGqNhZ3NinP5hc2eACoDuc2/D91vPOIYpuga5ghq5gjvOZ45TtPLm4xGH/PDU7i8YkZb9Si/IAMViU7aeX7Ex4h4mBPn8Cj4iJ9AhZU6U/mGLZKRBt4o+HsSx8y2MmNch46jBe7K+0TF0Tko82voGvyF6joDxAim6BydQQoeURWC51O01fOE0hXmbIH8U2MUt2x8oGFw5x4jXLdh5j2XSG8zgm4lAwQy4u41sedTu7cn+3yH6mrvcBkg+XmHO6mXV76A8msTEsOQX64ho2BseEK3v8rLXBxeXqdpYJbxDbxByKF+iMFlhyOzlSO0NXNE/dSuMZrZOU/U9B2eIMFiWnnXxUxMbQF04z7g3TGS3QE0wz7fVTs7LEWMSWS0e4sKHr1u0sIQ7X+adZdLqZc3vAxESWQ8ntoD1aps1UdvjTiewOBWWLW3AbIea6PRwKZ2kPl8nZZWbcfkb8c7gmpOgWsE1EdzCHu4G9IGe9PpbsAsay6YgW6Qum6IrmWXQ6WXS6duFTiewuBWWLa4+WmXd7cEzMtDvAottNIVxk1uuj6DRafjl/4/s/Vu02luwCR+pnmPH6WXI6AegLpugO5+gK5ze8WYbIfqHJnBZksKjabQB4JqAjXMQAx/wzpOMaM94AsbGYdXuJL9t5PEnNbiOwUqSMj2+nCS2P7nCOJaeTabexpEghKa1IQdmCFtxuLqRGGPeGCS2PQ9EsoeVRtrL0B5McqZ8mH5ewMBt+xk3FznEhdYSMqdIfTDDr9dMbTOGZgLaoTMZoIbm0LnW9W1B3OIdnAuYuPsCrK5ijEC2y4PXSUS+SMj6DwRgGa80W4LzTTc409pFcdLuYc3rIxmVScR1jIMZmzu3Bt1IMhJO0xeVd/pQiu0ctyhbVHi1ztH6arnCOebebolMgsFwWL44pwtrd5Etd9zFvhLqdIR+XsYmpWRkiy8GyYMAfw7EMvdGMQlJanoJyH4ixqdnZVU8y3AgLQ3c4xzH/DDnTCLNLTztMOm8oGCMdVxnzRoiwGQlGsYkZT40QWw5ZU2XQv0B7tLylzySyn6jrvUdFOMx4fdTsLBEOWVOjYmVxTXDxNsPJDV/LNSF9/gQd1sKGHwW74HYT2Ckiy2bMG2E4GGUkGGXUG2HMO8yIfx7duy0HhYJyD1pyCsy5ffQFExwKZ1fd3RLYaepWiiczNzHgj9Meb/we6vUmXCIcHBpbqS07BebdHob8UdKmzqQ3tCosK6RRSMpBoq73HjPpDVK3sxyvP0k+Ll1xC6AX18lHRW6onaTsdjB7caefa9F47vZxwov3ZVftNtJxlba4gmMi+oKpiy3Lw9gmomMT4SzSChSUe8iEN0xHXKRvg93qAX+MVFxbWcO4FUWng0l3kEK0iHsxlLNxlbqdpWI3HjFbtnNk4yoDwQT2BjfwFWkl6nrvERPeMO3REm0b3P/xko5oCePaTLv99IVTmzr3Ukh2RfP0hDOElsec20NfOEU5yjGeGsE1PoHl0R9Mkg5KBACWwbEsaoGhLaW/a1vFYjWkrdlF7FEKyj3gUkhudJPcZyqECyy5XZsKS4PFnNuDYxkK0QKB5TKWGsEmJjYWg8EYxbiDkknTEZVZXprniaJPsRYSRIZ6aAii5G3YZH+5u9kF7FEKyiYb94bpuIaQvGQlLL1++oLksLQwFx8AdoQLqSNYgE3MsD+KQ8QE3RRLARdGT7JY3dhMuUirUr+pica9YQrxtYfkJYVwgXRcZ3qDEzyuCTjsn8fCWulex2HI2bCT++az/GB0XiEpgoKyaS6FZC7anpC8pBAtbiksPRNyzhrkh7VOHlhsg7lz2NWN7U0p0uoUlE0wkTq8IyF5yVbCsrt8hrlKwJPVHM7CeazK/I7UJrIfKSh32UTqMO3hwo6F5CWbCUs/ilkuVZh46oc48+cUkiLPoMmcXXQpJPMb3ESibmeoWG2EtkeMjW0iPALa4gqpuJ54fiFaZInOxAmexUrIA+ca92xbob+xDyNygCgod8lGQ9JgsewUWHAPEVhr/+fxTEB3OEtHVGS92wmTwjKIDH8/vrOtW5H9Tl3vXTDubSwkfSvFudQxpr3+dUMSILA8prxBzqeOJB67Vjc8NjBfDSjWNLMtsh4F5Q4b9w5TiBYTQ7Jit3EhfYzATm3q+nU7w4XUMep2Zt3jrhaWQWR4dGLjrUknlSF3aIBsZy9erp183+FN1Sp7W9exW5pdwp6lrvcOuhSSuYR1khU7x7g3fMV+k+1xiXy4RMbUcExEZLlUrQxFt5Oy/fTNZqHlMJE6zOH6WVyzduvwmd3wih+yUFm/NZlq7yIoLnLkxa8lP3CEfN8R8v1HaO8bId9/ZAO/BZH9T0G5Q+bdbnJxeeMhaT0dkq4JGQzGyMSrt0VzTUC7CWj3i1TsHJPeEJHV6BQEOEx5gwz7o+v+vEK0yIzVzwLtnJobW/M4L9eBiSJuff07ueVNv4hlqfMhB5eCcgcsOx34dpYBf+0ggquHpBf7HA5G120ZArTFZUaC84ymjhJdbIlW7DYqdhttcWXdc3vDKc66I0z5s8DqMLZsB9tL8/x3/Do3vPod615H5KBQUG4zg8W0N8iJ2sl1j7uWkHz6+Dq9wSST3uDKa4vuIdr89YMSoLd2gXL7EdzSwyuvuakMbqaNN3/4fhxvc2OlIq1M/altNuf20puwKUXFbrvmkLwkHy6vWlNZsbKYDXST50s17NIMpr0xueNl22gfOs5b/+h7CkmRZ1BQbrOanSFl1l+0PekObiokw1Secm6IyLtyt0DLYtXjIIxlUbPWnwGPYsPkch3CGsbLNmrIdPC63/3CuueJHFQKym1Wt9Kk47WfTQM00u0iL/YZWSck65lDLHTdSqV9hIXuW4mdK1t7z7xLJ0xYVxnHhnoYYwVVjJfFSWX4qd/9/Po1ixxgCsptFFkurgmxWX9D2/5ggnRcJx+XGQlGcdYJyeXCCS6tGjKWTeRc2Vp85s8zCf9ZLdui6sdYoY+dyvLCX/gtMoVD654jcpBpMmcbOSbEWDaB5eKtM9aYi8vk/PUXoNfS3RQvC0kANyjj+lc+2Ct6RgvSThjnNAYqQYRJtZHNFzhx+8+se7zIQacW5TZLX3ww17WoZ7opdt7wjJCsUJh/HOsq93VX7dVjlymCK465nOdYRLHBae/h5jt+7ppqFTkIFJTbLBtXqVvpLZ+/dkg+dtWWYmw5lOz2p4810YZ2FgJIdw9x+NYXbblWkYNCQbnNOqMFKnYbtS20KgOvnWLnDavajOuFJMCs27Nydw5ALtrYM7fdrmGO3/6zFAqFTdcpctAoKHfAQDDOBW9k0+fV052bCsklp5Mlp3Ple8sYuqPkTXfLfkw9N8Bzb3/9pmsUOYg0mbMDPBNypH6aMW+E4WD9e68vl64vUM0NgmXhBmUK84+vE5KFK7ZN647mcM3645MAs+3Xc6yjG9t2NlzbtTKLY4SPfJl49HvESxNQnodMO2ZxfNdqkIPD6hyCWhFy3diFAewjz8e56ZXYh45t6XoKyh2SIqQQLzLhDTEYbCwMvKDEobkfEDoZvPrSVSdu4FJIDqx6LR+V6ArmeMYGRFcYTR2lP5jAft5PbaimaxV97zP4D3wKU5rDikNMdNli/NrGhglENmvlL+BakWjuHNHZ7xHe9zGsTB73+T+N++M/v6nrKSh3UP7ieOFmwtIOa6TCtResXy0ks3GV/mDi8nXsVzWaOkpvOEUmrtFz4rkbqmerojPfpn7Pb0Low8WlUGvvwy6yw+IQ44cYv0zwjY/if/UPSb36vbgvfPuGTtcY5Q7LR0Xa4yIT3tA1X2utkBzyLyQucr88JAEO7WBQ+ve8n/pf/EuoLKyEpMheYUIfTIT/1f+P6v/705jF9Xf5AgXlrtiOsFx2OrctJHdS7Q/uJHzsK1BXQMoe51cwC2NU//NdRE98dd1DFZS75FrCMsZi2u1b9dreC0lD5d+/knh5EuJoh3+WyDbyq9Q//2+Jvv/ZNQ9RUO6irYalBasmdvZeSEL1D94MQbVxf6TIflMrUv/yf1ozLBWUu+zpsBze8DkWhoFgnLa4SiFa3FBInt/N7vYf/xPM8uSO/xyRHeVX8P/uQ1fthisomyAfFWmPljYVlrm4zLB/nr5gakMh2R9O70pI+l/5EPHMKbUkpSWYWpH6X/3mFRM8CsomycelTYflRlwKyXRc3dbrXo2ZPUP08BcaXW6RVuFXqX3qn616SUHZRKcBT7EAAA2hSURBVNsdlqPpY7sWkgD1L32gsQRIpMWY8gLhdz698r2Cssm2KyxH08fo9Sd3LSTj6VPE449g1OWWVuRX8P/2gyvfKij3gGsNy0shmTE7PyZ5SfTAJ7RWUlqa5TiE9/0xoKDcMy6F5dRlj55NYiybC97IrockQPjIF3f154nsNhP6hA/+BXAxKMv++rOosjvycYl8VOSpzE2Unfy6xy47BU6lrudQOLPrIRmffxDjrf+kR5FWYOol4tmzjU0x0k7Cbgqya3JxietrTzDhDVFyOnBjn7Spk4pr1O0sdStNgIdtGU7Un2xKjdFT96nbLQeCCX3iJ7/aCEo/inGd3dubUNZnYRgKxijbeep2mqLdTuh045mAdFwjR4Vs2LygikYfAqNeiBwAUUB09nuNoKyHMW0pBeVek4tL5OJSs8u4Ujl5F3WRVhEvTzbGKBeq6z/eVORycWWx2SWI7BpTnm8E5VwpIIi0Hk42xmrTA8nk4LAy7Y2gnFiu42ihkGyQnnMjB4lZHG8EZRgbSnUNzouIXM1KO/Kp2Qqhut8iIldYCcqzc9WEzbtERA6mVSOTP5woEUaKSxGRy9kA+b4RoNGqXK7reSciIpezAerFp/cU/PqpRWINVYqIrLABMu3dKy9EseGbpxcIlJYiIsCloOzsXfXiTCng66eWFJYiIlwMyr5nvQDLWr3ifLHi8+0zS0QKSxE54GyAodtux2u7cv/D6ZLPF0/OU6xHxNryX0QOKBug/5YXE/lX3/y16kd86fE5npiuEhtQXIrIQbPS3z72Y29Y98BHJ0t8/oczPDVTIYhigsgoNEXkQFgJypvf8E687PqPHwhjw8PjJT73w1m+cXqBk1MVZks+pXpEEMWU/b21BrMUuc0uQURawEqSdB65iZ4bnsfkw9/c0CNIFyohC5U9uKnsM9zd7AJEZN9bNdX9gn/0m6Tync2qRURkT1oVlIXDJzjxyrfhZtuaVY+IyJ5zxXa9t939PjoP33jFukoRkYPqqmn4k//XX5LrGd7tWkRE9qQ1m413/v5XcTNtYOmZ3yJysK3dv7Ys3v7fHiHfM4ztaJmNiBxciQORd37o6xx5yWtJ5Tp2ox4RkT1nQzM2L33vB3nZP/8QmUIPXja30zWJiOwpG57aHnzuy3jrH36H297xL+kYvA4vm8fxUjtZm4jInrDpwccb77iLG++4i9LUec7d/9dMPXo/pZkxasszpNoKlKZHd6LOLek6dkuzSxCRFrDlWZp8/xFuvfOXuPXOX9rOekRE9hytKhcRSaCgFBFJoKAUEUmgoBQRSaCgFBFJoKAUEUmgoBQRSaCgFBFJoKAUEUmgoBQRSaCgFBFJoKAUEUmgoBQRSaCgFBFJoKAUEUmgoBQRSaCgFBFJoKAUEUmgoBQRSaCgFBFJoKAUEUmgoBQRSaCgFBFJoKAUEUmgoBQRSaCgFBFJoKAUEUmgoBQRSaCgFBFJoKAUEUmgoBQRSaCgFBFJoKAUEUmgoBQRSaCgFBFJoKAUEUmgoBQRSaCgFBFJoKAUEUmgoBQRSaCgFBFJoKAUEUmgoBQRSaCgFBFJoKAUEUmgoBQRSaCgFBFJoKAUEUmgoBQRSaCgFBFJoKBcR9mPml2CiOwBCsp1eLbV7BJEZA9QUK6jHsXNLkFE9gAF5ToqvoJSRBSU65otB8TGNLsMEWkyBeU6xpZqxMpJkQNPQbmOUi0iiJSUIgedgjLBmdmKWpUiB5yCMsHj0xW0SEjkYFNQbsDD40VCTYCLHFgKynXk+g4D8NRslXqou3REDioF5Tr84uLK1984vUiowUqRA0lBuY50vrDydbke8d3zy/i6W0fkwFFQriPbPbDq+/GlOo+Ml9SyFDlgFJTr6HvWC7Gs1XPeZ+ZrPDxWVMtS5ABRUK5j4Dkvxcvmr3j9zHyNB0eLalmKHBAKynUMPucniIL6Vd8bX6rz5SfmKfmRlg6JtDgFZYKh571yzffK9YgvPjbHYxNFjAHtnyHSmhSUCZ5957tI5zvXPebJ2Sp/+YNpHp0sUQ1iwtho1yGRFuI2u4C97tCJ53LoxHOZeOhrGNYPv5PTFU5OV2hPuwx1punJebSlbNKuQxDF5FLOLlW9vlLk0tbsIkT2EcsYNX2SVBemueefv5KwXm12Kdvm7j89s+VzK7/94m2sRGTvU9d7A7Jdfdzypl/Cy7Y3uxQRaQIF5Qb9yFveS9/NL8Bx080uRUR2mYJyE27/9f9Cvm8Yy9avTeQg0f/xm/SG//hlem64DcdNNbsUEdklCsoteM1v/TlDz7/9qnftiEjrUVBu0St+9SP8yM/876RyHeqKi7Q4/R9+DW5+3T/hjR/4MiMvfA1eNtfsckRkh2jB+TXKdPbw8l/5MMWJszxyz0c4e99fYTkeQbUERjeBi7QCLTjfATMnv8uF7/0dM09+l+rcFLXiPOl8J6Xp0WaXBkDXsVt43e9+Ycvna8G5HDQKStk0BaUcNBqjFBFJoKAUEUmgoBQRSaCgFBFJoKAUEUmgoBQRSaCgFBFJoKAUEUmgoBQRSaCgFBFJoKAUEUmgoBQRSaCgFBFJoKAUEUmgoBQRSaCgFBFJoKAUEUmgoBQRSaCgFBFJoKAUEUmgoBQRSaCgFBFJoKAUEUmgoBQRSaCgFBFJoKAUEUmgoBQRSaCgFBFJoKAUEUmgoBQRSaCgFBFJoKAUEUmgoBQRSaCgFBFJoKAUEUmgoBQRSaCgFBFJoKAUEUmgoBQRSaCgFBFJoKAUEUmgoBQRSaCgFBFJoKAUEUmgoBQRSaCgFBFJoKAUEUmgoBQRSaCgFBFJoKAUEUmgoJRNK/txs0sQ2TVlP1JQyualXavZJYjsmpRjKyhl84JILUo5OOphrKCUzauHptkliOyamoJStmKhEjS7BJFdM18JFJSyeXOVgDBSq1JaXxAZZksKStmCqWUfS39y5ABwHYvJ5bqCUjavHsbUtERIDoCZUh3QOkrZorNzVWL1vqWF1cOYU7NVQEEpW3RypoKt5ZTSwvwoZmLJBxSUcg2enK4SGzUrpfUEkeH7F4or3ysoZdPyfSMAPDpVpK6xSmkxBpgp+cyWGsvg8n0jCkrZvHpxAYAohh9OlnWnjrSU2Bi+dXZp5Xu/sqSglM3LtHevfD26WGNyOSC+xpmd0HKZ9vqZ8IYo2/lrLVFkS4LI8JUn5le9lunoVVDK5mU6e1d9/53zS8xfw906BosL3gg+KSxgPDVMyc5dY5UimxNEjZZksRatej3XO6SglM3re9YLsJ6x4vxrpxap+NGWlgxV7SyR5TIYjBPi0BEtE1sevp3epopF1hdEMQ+cW2am5K963XJc+m9+sYJSNm/ottvx2q7sHv/Px+ZYroUbDssYi0lvCAuILZvx1DAeIf3BJPNuN4HlbW/hIldhjOEbp5eZKtaveM9NZRh50WsUlLJ5/be8mMivXfW9rzwxz9mFKkFCWkaWw5zbS9nOkTJ18lGJup0lY2pMeQMAtEXlba9d5JIwMizXQj73yCwLFf+qx6TaOigMn1BQytYc+7E3rPneQ6NF7ju9SDWI1pwRX7I7WXS7SJk6jokYCMYphPPM252EOAz5F7DQGk3ZfrExRMbwg4kif3tyfs0NXhwvzY2vuQsAyxitGJbNWzx/kr/5128lqJbWPe667gwnetvIphwsy8KxIMTBJWLKG2DZKTAYTJCPlnepcjmIYgORMQRhzOm5Gk9MJ/dWbNvmHZ86BYC70wVKa+o8chM9NzyPyYe/yXp/156Zr3FmvkZbymawO4996BikOzhklugoj0MOJr1BBkxMPl4/dEU2quxHeI5NLYyp+BGzJZ/xpTqlepR8MuBmctz29l9d+V4tStmypQtP8cX/820rC9CTRD03QFjDCmrEncPYlQXshfNEnYchnceZehzU3ZY9oL3/KG/64L0r32uMUrascPgEJ175NtxsW/LBtoNJ57BL05hsAbuyQNzWRdx1BGfxAs7MkygkZS9wMzle9RsfW/WaglKuyW13v4/Owzdesa5yFcuGOMJensSk842vF0chCoi9DMZ2IA53r2iRNaRyBX7i3R8g339k1evqesu2+Ox7Xk5pZhRsF5PpwKrMg+MRHjoObga7OIldnCLuPoaxHKywhnEz2HOn0G5tshe42Rwv+F/fz4lXvf2K9xSUsj2M4dM//2wCJ0vUOYKzNE7spjFuGjuoEed7sEvTWJUFokPHsaIQe+EcVnj19ZgiuymVK/D8u9531ZAEBaVss8++52WU/Igw3w9xhDP7FFZQJc52EXcfxS5OYy2PqxUpe4abyfET7/4AIy+6Y81jFJSy7b7xwfcy+sQj1FMdWMVpnOVxgEZYtg/gzj4B8caWaYjsFDeTI9NxiFe//0+uGJN8JgWlbJswDJmZmSGKIpg5zTf/22/jpzth9gxWabpxkGWD0f6V0jy2l4Io5Ef/4fu56bX/eEPnKChl25w+fZp0Ok0mkyGXy2HbNo986U85+d2vEU+exCpOEQVXv6dWZCfZrofjpUm1dXDjHXdx653v2tT5CkrZFsvLy0xNTXH8+HGmp6dZXFzEsiyOHTtGtVrFqiwy9p2/YerR+ynNjFFbniHVVqA0PbrqOsbLYgXVJn0KaRX5vhH8yhKZjl5yvUMM3vJjDL/wH1AYPrGl6/3/MVNeQL2w/mUAAAAASUVORK5CYII=;" vertex="1" parent="1">
          <mxGeometry x="148.3" y="-890" width="115.32" height="130" as="geometry" />
        </mxCell>
        <mxCell id="XMWcY9tDgLBIwMx6nEMs-53" value="" style="endArrow=classic;html=1;rounded=0;fontSize=50;" edge="1" parent="1">
          <mxGeometry width="50" height="50" relative="1" as="geometry">
            <mxPoint x="478" y="-1084" as="sourcePoint" />
            <mxPoint x="748" y="-1084" as="targetPoint" />
          </mxGeometry>
        </mxCell>
        <mxCell id="XMWcY9tDgLBIwMx6nEMs-54" value="REQ" style="text;html=1;strokeColor=none;fillColor=none;align=center;verticalAlign=middle;whiteSpace=wrap;rounded=0;fontSize=28;" vertex="1" parent="1">
          <mxGeometry x="440" y="-1134" width="360" height="30" as="geometry" />
        </mxCell>
        <mxCell id="XMWcY9tDgLBIwMx6nEMs-55" value="" style="endArrow=classic;html=1;rounded=0;fontSize=50;" edge="1" parent="1">
          <mxGeometry width="50" height="50" relative="1" as="geometry">
            <mxPoint x="718" y="-1022" as="sourcePoint" />
            <mxPoint x="498" y="-1022" as="targetPoint" />
          </mxGeometry>
        </mxCell>
        <mxCell id="XMWcY9tDgLBIwMx6nEMs-56" value="RES" style="text;html=1;strokeColor=none;fillColor=none;align=center;verticalAlign=middle;whiteSpace=wrap;rounded=0;fontSize=28;" vertex="1" parent="1">
          <mxGeometry x="440" y="-1002" width="360" height="30" as="geometry" />
        </mxCell>
        <mxCell id="XMWcY9tDgLBIwMx6nEMs-66" value="" style="endArrow=classic;html=1;rounded=0;fontSize=50;" edge="1" parent="1">
          <mxGeometry width="50" height="50" relative="1" as="geometry">
            <mxPoint x="478" y="-654" as="sourcePoint" />
            <mxPoint x="748" y="-654" as="targetPoint" />
          </mxGeometry>
        </mxCell>
        <mxCell id="XMWcY9tDgLBIwMx6nEMs-67" value="REQ" style="text;html=1;strokeColor=none;fillColor=none;align=center;verticalAlign=middle;whiteSpace=wrap;rounded=0;fontSize=28;" vertex="1" parent="1">
          <mxGeometry x="440" y="-704" width="360" height="30" as="geometry" />
        </mxCell>
        <mxCell id="XMWcY9tDgLBIwMx6nEMs-68" value="" style="endArrow=classic;html=1;rounded=0;fontSize=50;" edge="1" parent="1">
          <mxGeometry width="50" height="50" relative="1" as="geometry">
            <mxPoint x="718" y="-592" as="sourcePoint" />
            <mxPoint x="498" y="-592" as="targetPoint" />
          </mxGeometry>
        </mxCell>
        <mxCell id="XMWcY9tDgLBIwMx6nEMs-69" value="RES" style="text;html=1;strokeColor=none;fillColor=none;align=center;verticalAlign=middle;whiteSpace=wrap;rounded=0;fontSize=28;" vertex="1" parent="1">
          <mxGeometry x="440" y="-572" width="360" height="30" as="geometry" />
        </mxCell>
        <mxCell id="XMWcY9tDgLBIwMx6nEMs-103" value="" style="rounded=1;whiteSpace=wrap;html=1;fontSize=100;strokeColor=#000000;strokeWidth=1;" vertex="1" parent="1">
          <mxGeometry x="3125" y="-1612" width="330" height="280" as="geometry" />
        </mxCell>
        <mxCell id="XMWcY9tDgLBIwMx6nEMs-104" value="" style="strokeWidth=2;html=1;shape=mxgraph.flowchart.database;whiteSpace=wrap;fontSize=100;" vertex="1" parent="1">
          <mxGeometry x="3200" y="-1580" width="180" height="213" as="geometry" />
        </mxCell>
        <mxCell id="XMWcY9tDgLBIwMx6nEMs-105" value="" style="dashed=0;outlineConnect=0;html=1;align=center;labelPosition=center;verticalLabelPosition=bottom;verticalAlign=top;shape=mxgraph.webicons.mongodb;gradientColor=#DFDEDE;fontSize=100;strokeColor=#000000;strokeWidth=1;" vertex="1" parent="1">
          <mxGeometry x="3252.5" y="-1490" width="87.5" height="83" as="geometry" />
        </mxCell>
        <mxCell id="XMWcY9tDgLBIwMx6nEMs-106" value="MongoDB" style="text;html=1;strokeColor=none;fillColor=none;align=center;verticalAlign=middle;whiteSpace=wrap;rounded=0;fontSize=28;" vertex="1" parent="1">
          <mxGeometry x="3130" y="-1360.5" width="328" height="30" as="geometry" />
        </mxCell>
        <mxCell id="XMWcY9tDgLBIwMx6nEMs-134" value="" style="rounded=1;whiteSpace=wrap;html=1;fontSize=100;strokeColor=#000000;strokeWidth=1;" vertex="1" parent="1">
          <mxGeometry x="910" y="-1230" width="1340" height="404" as="geometry" />
        </mxCell>
        <mxCell id="XMWcY9tDgLBIwMx6nEMs-136" style="edgeStyle=orthogonalEdgeStyle;rounded=0;orthogonalLoop=1;jettySize=auto;html=1;exitX=1;exitY=0.5;exitDx=0;exitDy=0;entryX=0;entryY=0.5;entryDx=0;entryDy=0;startArrow=none;startFill=0;endArrow=none;endFill=0;" edge="1" source="XMWcY9tDgLBIwMx6nEMs-137" target="XMWcY9tDgLBIwMx6nEMs-140" parent="1">
          <mxGeometry relative="1" as="geometry" />
        </mxCell>
        <mxCell id="XMWcY9tDgLBIwMx6nEMs-137" value="" style="rounded=1;whiteSpace=wrap;html=1;fontSize=100;strokeColor=#000000;strokeWidth=1;" vertex="1" parent="1">
          <mxGeometry x="977" y="-1173" width="330" height="280" as="geometry" />
        </mxCell>
        <mxCell id="XMWcY9tDgLBIwMx6nEMs-138" value="" style="aspect=fixed;html=1;points=[];align=center;image;fontSize=12;image=img/lib/azure2/app_services/API_Management_Services.svg;strokeColor=#000000;strokeWidth=1;" vertex="1" parent="1">
          <mxGeometry x="1017" y="-1133" width="227.5" height="210" as="geometry" />
        </mxCell>
        <mxCell id="XMWcY9tDgLBIwMx6nEMs-139" value="API" style="text;html=1;strokeColor=none;fillColor=none;align=center;verticalAlign=middle;whiteSpace=wrap;rounded=0;fontSize=28;" vertex="1" parent="1">
          <mxGeometry x="947" y="-877" width="360" height="30" as="geometry" />
        </mxCell>
        <mxCell id="XMWcY9tDgLBIwMx6nEMs-140" value="" style="rounded=1;whiteSpace=wrap;html=1;fontSize=100;strokeColor=#000000;strokeWidth=1;" vertex="1" parent="1">
          <mxGeometry x="1730" y="-1173.75" width="380" height="280" as="geometry" />
        </mxCell>
        <mxCell id="XMWcY9tDgLBIwMx6nEMs-141" value="" style="strokeWidth=2;html=1;shape=mxgraph.flowchart.database;whiteSpace=wrap;fontSize=100;" vertex="1" parent="1">
          <mxGeometry x="1827.5" y="-1141.75" width="180" height="213" as="geometry" />
        </mxCell>
        <mxCell id="XMWcY9tDgLBIwMx6nEMs-142" value="" style="dashed=0;outlineConnect=0;html=1;align=center;labelPosition=center;verticalLabelPosition=bottom;verticalAlign=top;shape=mxgraph.webicons.mongodb;gradientColor=#DFDEDE;fontSize=100;strokeColor=#000000;strokeWidth=1;" vertex="1" parent="1">
          <mxGeometry x="1880" y="-1051.75" width="87.5" height="83" as="geometry" />
        </mxCell>
        <mxCell id="XMWcY9tDgLBIwMx6nEMs-143" value="MongoDB" style="text;html=1;strokeColor=none;fillColor=none;align=center;verticalAlign=middle;whiteSpace=wrap;rounded=0;fontSize=28;" vertex="1" parent="1">
          <mxGeometry x="1757.5" y="-886.25" width="328" height="30" as="geometry" />
        </mxCell>
        <mxCell id="XMWcY9tDgLBIwMx6nEMs-154" value="" style="rounded=1;whiteSpace=wrap;html=1;fontSize=100;strokeColor=#000000;strokeWidth=1;" vertex="1" parent="1">
          <mxGeometry x="910" y="-1670" width="1340" height="404" as="geometry" />
        </mxCell>
        <mxCell id="XMWcY9tDgLBIwMx6nEMs-155" style="edgeStyle=orthogonalEdgeStyle;rounded=0;orthogonalLoop=1;jettySize=auto;html=1;exitX=1;exitY=0.5;exitDx=0;exitDy=0;entryX=0;entryY=0.5;entryDx=0;entryDy=0;startArrow=none;startFill=0;endArrow=none;endFill=0;" edge="1" source="XMWcY9tDgLBIwMx6nEMs-156" target="XMWcY9tDgLBIwMx6nEMs-159" parent="1">
          <mxGeometry relative="1" as="geometry" />
        </mxCell>
        <mxCell id="XMWcY9tDgLBIwMx6nEMs-156" value="" style="rounded=1;whiteSpace=wrap;html=1;fontSize=100;strokeColor=#000000;strokeWidth=1;" vertex="1" parent="1">
          <mxGeometry x="977" y="-1613" width="330" height="280" as="geometry" />
        </mxCell>
        <mxCell id="XMWcY9tDgLBIwMx6nEMs-157" value="" style="aspect=fixed;html=1;points=[];align=center;image;fontSize=12;image=img/lib/azure2/app_services/API_Management_Services.svg;strokeColor=#000000;strokeWidth=1;" vertex="1" parent="1">
          <mxGeometry x="1017" y="-1573" width="227.5" height="210" as="geometry" />
        </mxCell>
        <mxCell id="XMWcY9tDgLBIwMx6nEMs-158" value="API" style="text;html=1;strokeColor=none;fillColor=none;align=center;verticalAlign=middle;whiteSpace=wrap;rounded=0;fontSize=28;" vertex="1" parent="1">
          <mxGeometry x="947" y="-1317" width="360" height="30" as="geometry" />
        </mxCell>
        <mxCell id="XMWcY9tDgLBIwMx6nEMs-159" value="" style="rounded=1;whiteSpace=wrap;html=1;fontSize=100;strokeColor=#000000;strokeWidth=1;" vertex="1" parent="1">
          <mxGeometry x="1730" y="-1613.75" width="380" height="280" as="geometry" />
        </mxCell>
        <mxCell id="XMWcY9tDgLBIwMx6nEMs-160" value="" style="strokeWidth=2;html=1;shape=mxgraph.flowchart.database;whiteSpace=wrap;fontSize=100;" vertex="1" parent="1">
          <mxGeometry x="1827.5" y="-1581.75" width="180" height="213" as="geometry" />
        </mxCell>
        <mxCell id="XMWcY9tDgLBIwMx6nEMs-161" value="" style="dashed=0;outlineConnect=0;html=1;align=center;labelPosition=center;verticalLabelPosition=bottom;verticalAlign=top;shape=mxgraph.webicons.mongodb;gradientColor=#DFDEDE;fontSize=100;strokeColor=#000000;strokeWidth=1;" vertex="1" parent="1">
          <mxGeometry x="1880" y="-1491.75" width="87.5" height="83" as="geometry" />
        </mxCell>
        <mxCell id="XMWcY9tDgLBIwMx6nEMs-162" value="MongoDB" style="text;html=1;strokeColor=none;fillColor=none;align=center;verticalAlign=middle;whiteSpace=wrap;rounded=0;fontSize=28;" vertex="1" parent="1">
          <mxGeometry x="1757.5" y="-1326.25" width="328" height="30" as="geometry" />
        </mxCell>
        <mxCell id="XMWcY9tDgLBIwMx6nEMs-163" value="" style="rounded=1;whiteSpace=wrap;html=1;fontSize=100;strokeColor=#000000;strokeWidth=1;" vertex="1" parent="1">
          <mxGeometry x="910" y="-780" width="1340" height="404" as="geometry" />
        </mxCell>
        <mxCell id="XMWcY9tDgLBIwMx6nEMs-164" style="edgeStyle=orthogonalEdgeStyle;rounded=0;orthogonalLoop=1;jettySize=auto;html=1;exitX=1;exitY=0.5;exitDx=0;exitDy=0;entryX=0;entryY=0.5;entryDx=0;entryDy=0;startArrow=none;startFill=0;endArrow=none;endFill=0;" edge="1" source="XMWcY9tDgLBIwMx6nEMs-165" target="XMWcY9tDgLBIwMx6nEMs-168" parent="1">
          <mxGeometry relative="1" as="geometry" />
        </mxCell>
        <mxCell id="XMWcY9tDgLBIwMx6nEMs-165" value="" style="rounded=1;whiteSpace=wrap;html=1;fontSize=100;strokeColor=#000000;strokeWidth=1;" vertex="1" parent="1">
          <mxGeometry x="977" y="-723" width="330" height="280" as="geometry" />
        </mxCell>
        <mxCell id="XMWcY9tDgLBIwMx6nEMs-166" value="" style="aspect=fixed;html=1;points=[];align=center;image;fontSize=12;image=img/lib/azure2/app_services/API_Management_Services.svg;strokeColor=#000000;strokeWidth=1;" vertex="1" parent="1">
          <mxGeometry x="1017" y="-683" width="227.5" height="210" as="geometry" />
        </mxCell>
        <mxCell id="XMWcY9tDgLBIwMx6nEMs-167" value="API" style="text;html=1;strokeColor=none;fillColor=none;align=center;verticalAlign=middle;whiteSpace=wrap;rounded=0;fontSize=28;" vertex="1" parent="1">
          <mxGeometry x="947" y="-427" width="360" height="30" as="geometry" />
        </mxCell>
        <mxCell id="XMWcY9tDgLBIwMx6nEMs-168" value="" style="rounded=1;whiteSpace=wrap;html=1;fontSize=100;strokeColor=#000000;strokeWidth=1;" vertex="1" parent="1">
          <mxGeometry x="1730" y="-723.75" width="380" height="280" as="geometry" />
        </mxCell>
        <mxCell id="XMWcY9tDgLBIwMx6nEMs-169" value="" style="strokeWidth=2;html=1;shape=mxgraph.flowchart.database;whiteSpace=wrap;fontSize=100;" vertex="1" parent="1">
          <mxGeometry x="1827.5" y="-691.75" width="180" height="213" as="geometry" />
        </mxCell>
        <mxCell id="XMWcY9tDgLBIwMx6nEMs-170" value="" style="dashed=0;outlineConnect=0;html=1;align=center;labelPosition=center;verticalLabelPosition=bottom;verticalAlign=top;shape=mxgraph.webicons.mongodb;gradientColor=#DFDEDE;fontSize=100;strokeColor=#000000;strokeWidth=1;" vertex="1" parent="1">
          <mxGeometry x="1880" y="-601.75" width="87.5" height="83" as="geometry" />
        </mxCell>
        <mxCell id="XMWcY9tDgLBIwMx6nEMs-171" value="MongoDB" style="text;html=1;strokeColor=none;fillColor=none;align=center;verticalAlign=middle;whiteSpace=wrap;rounded=0;fontSize=28;" vertex="1" parent="1">
          <mxGeometry x="1757.5" y="-436.25" width="328" height="30" as="geometry" />
        </mxCell>
      </root>
    </mxGraphModel>
  </diagram>
</mxfile>
